<?xml version="1.0" encoding="UTF-8"?>
<svg id="Layer_1" data-name="Layer 1" xmlns="http://www.w3.org/2000/svg" viewBox="0 0 32 32">
  <g id="Top">
    <g id="Logo">
      <g>
        <path d="M16,12.84v6.32c0,.15,0,.3.02.44.29,3.17,3.88,4.91,6.68,3.39l2.15-1.17c3.23-1.75,7.15.59,7.15,4.26v1.92c0,2.21-1.79,4-4,4H12c-2.21,0-4-1.79-4-4h0c0-2.21-1.79-4-4-4h0c-2.21,0-4-1.79-4-4v-8c0-2.21,1.79-4,4-4h0c2.21,0,4-1.79,4-4h0C8,1.79,9.79,0,12,0h16c2.21,0,4,1.79,4,4v1.92c0,3.67-3.92,6-7.15,4.26l-2.15-1.17c-2.8-1.52-6.4.22-6.68,3.39-.01.15-.02.29-.02.44Z" fill="#f2f2f3" stroke-width="0"/>
        <circle cx="3.37" cy="3.37" r="3.37" fill="#f2f2f3" stroke-width="0"/>
      </g>
    </g>
  </g>
</svg>