<?xml version="1.0" encoding="UTF-8"?>
<svg id="Layer_1" data-name="Layer 1" xmlns="http://www.w3.org/2000/svg" viewBox="0 0 266.37 68.16">
  <g id="Top">
    <g id="Logo">
      <g>
        <path d="M112.92,38.93l5.41,6.32-.98.84c-4.92,4.21-9.36,5.93-15.29,5.93-10.7,0-18.16-7.33-18.16-17.83s8.3-18.26,18.88-18.26c6.72,0,11.99,3.08,15.24,8.93l.61,1.08-7.5,4.55-.64-1.2c-1.35-2.54-3.87-5.56-8.15-5.56-5.26,0-9.22,4.45-9.22,10.35,0,7.48,4.91,10.12,9.11,10.12,3.21,0,6.47-1.47,9.71-4.38l.98-.89Z" fill="currentColor" stroke-width="0"/>
        <polygon points="153.01 16.82 153.01 51.11 144.08 51.11 144.08 37.78 132.04 37.78 132.04 51.11 123.11 51.11 123.11 16.82 132.04 16.82 132.04 30.2 144.08 30.2 144.08 16.82 153.01 16.82" fill="currentColor" stroke-width="0"/>
        <path d="M191.98,45.45c-2.67-1.26-3.21-2.38-3.21-3.67v-13.66c0-7.33-5.36-12.08-13.65-12.08-7,0-12.34,3.17-15.43,9.19l-.57,1.08,7.1,4.16.63-1.19c1.39-2.62,3.8-5.72,7.41-5.72s5.57,1.91,5.57,5.12v3.49h-8.95c-8.57,0-12.48,5.13-12.48,9.89,0,5.83,5.13,9.9,12.48,9.9,3.79,0,7.26-.93,11.14-2.96,1.4,1.6,3.21,2.81,5,3.3l.76.22,5.75-6.32-1.56-.75ZM171.06,39.36h8.78v2.85c-2.86,1.53-5.63,2.28-8.43,2.28-2.41,0-3.66-1.25-3.66-2.47,0-1.69,1.21-2.66,3.31-2.66Z" fill="currentColor" stroke-width="0"/>
        <path d="M227.56,40.61c0,6.92-6.2,11.41-15.79,11.41-6.52,0-12.14-2.24-15.85-6.33l-.72-.79,4.94-6.51,1.04,1.11c3.12,3.29,6.44,4.82,10.48,4.82,4.41,0,7.04-1.3,7.04-3.49,0-1.04-.8-1.79-2.38-2.24-1.24-.36-2.76-.63-4.37-.92-6.06-1.06-14.33-2.51-14.33-10.79,0-6.14,6.32-10.96,14.38-10.96,5.17,0,10.6,1.68,14.17,4.37l.88.66-3.75,7.01-1.2-.89c-3.25-2.4-6.53-3.57-10.09-3.57s-5.57,1.62-5.57,3.21c0,.49,0,1.31,2.44,1.89.99.24,2.15.45,3.38.67,6.47,1.16,15.33,2.76,15.33,11.33Z" fill="currentColor" stroke-width="0"/>
        <path d="M263.14,39.73l-1.24.9c-2.94,2.13-7.06,3.35-11.25,3.35-6.72-.39-8.39-4.96-8.69-8.39h24.06v-2.24c0-10.35-6.46-17.31-16.07-17.31s-17.31,7.66-17.31,18.21,7.05,17.59,17.54,17.59c5.37,0,11.25-1.91,15.33-4.99l.86-.64-3.24-6.48ZM249.57,23.57c3.8,0,5.76,2.33,6.44,4.9h-13.28c.92-2.5,2.84-4.9,6.83-4.9Z" fill="currentColor" stroke-width="0"/>
      </g>
      <g>
        <path d="M34.08,27.35v13.46c0,.32.01.63.04.94.61,6.76,8.27,10.46,14.23,7.22l4.58-2.48c6.87-3.73,15.23,1.25,15.23,9.06v4.09c0,4.71-3.81,8.52-8.52,8.52H25.56c-4.71,0-8.52-3.81-8.52-8.52h0c0-4.71-3.81-8.52-8.52-8.52h0c-4.71,0-8.52-3.81-8.52-8.52v-17.04c0-4.71,3.81-8.52,8.52-8.52h0c4.71,0,8.52-3.81,8.52-8.52h0C17.04,3.81,20.85,0,25.56,0h34.08c4.71,0,8.52,3.81,8.52,8.52v4.09c0,7.82-8.36,12.79-15.23,9.06l-4.58-2.48c-5.96-3.23-13.62.46-14.23,7.22-.03.31-.04.62-.04.94Z" fill="currentColor" stroke-width="0"/>
        <circle cx="7.18" cy="7.18" r="7.18" fill="currentColor" stroke-width="0"/>
      </g>
    </g>
  </g>
</svg>