<?xml version="1.0" encoding="UTF-8"?>
<svg id="Layer_1" data-name="Layer 1" xmlns="http://www.w3.org/2000/svg" viewBox="0 0 68.16 68.16">
  <g id="Top">
    <g id="Logo">
      <g>
        <path d="M34.08,27.35v13.46c0,.32.01.63.04.94.61,6.76,8.27,10.46,14.23,7.22l4.58-2.48c6.87-3.73,15.23,1.25,15.23,9.06v4.09c0,4.71-3.81,8.52-8.52,8.52H25.56c-4.71,0-8.52-3.81-8.52-8.52h0c0-4.71-3.81-8.52-8.52-8.52h0c-4.71,0-8.52-3.81-8.52-8.52v-17.04c0-4.71,3.81-8.52,8.52-8.52h0c4.71,0,8.52-3.81,8.52-8.52h0C17.04,3.81,20.85,0,25.56,0h34.08c4.71,0,8.52,3.81,8.52,8.52v4.09c0,7.82-8.36,12.79-15.23,9.06l-4.58-2.48c-5.96-3.23-13.62.46-14.23,7.22-.03.31-.04.62-.04.94Z" fill="#0f0f0f" stroke-width="0"/>
        <circle cx="7.18" cy="7.18" r="7.18" fill="#0f0f0f" stroke-width="0"/>
      </g>
    </g>
  </g>
</svg>