<?xml version="1.0" encoding="UTF-8"?>
<svg id="Layer_1" data-name="Layer 1" xmlns="http://www.w3.org/2000/svg" viewBox="0 0 30 30">
  <path d="M26.67,0H3.33C1.49,0,0,1.49,0,3.33v23.33c0,1.84,1.49,3.33,3.33,3.33h23.33c1.84,0,3.33-1.49,3.33-3.33V3.33c0-1.84-1.49-3.33-3.33-3.33ZM10,23.33h-4.2v-11.67h4.2v11.67ZM7.82,9.53c-1.28,0-2.14-.86-2.14-2s.86-2,2.29-2c1.28,0,2.14.86,2.14,2s-.86,2-2.29,2ZM25,23.33h-4.07v-6.38c0-1.76-1.09-2.17-1.49-2.17s-1.76.27-1.76,2.17v6.38h-4.2v-11.67h4.2v1.63c.54-.95,1.63-1.63,3.66-1.63s3.66,1.63,3.66,5.29v6.38Z" fill="#262716" stroke-width="0"/>
</svg>