<?xml version="1.0" encoding="UTF-8"?>
<svg id="Layer_2" data-name="Layer 2" xmlns="http://www.w3.org/2000/svg" viewBox="0 0 388.65 160.56">
  <defs>
    <style>
      .cls-1 {
        fill: #dce359;
      }

      .cls-1, .cls-2, .cls-3 {
        stroke-width: 0px;
      }

      .cls-2 {
        fill: #220a08;
      }

      .cls-3 {
        fill: #f0f5ef;
      }
    </style>
  </defs>
  <g id="Layer_1-2" data-name="Layer 1">
    <g>
      <g>
        <path class="cls-2" d="M192.26,158.28c-18.9,0-36.9-4.34-50.82-12.24-5.55,2.96-11.5,4.46-17.7,4.46-9.79,0-19.16-3.86-26.66-10.92-4.6,6.88-11.69,10.92-19.38,10.92-9.51,0-18.12-6.34-22.1-16.02-5.08,2.85-10.71,4.34-16.41,4.34-20.51,0-37.19-19.01-37.19-42.38,0-17.09,8.8-32.25,22.51-38.94,4.09-20.8,20.42-35.77,39.24-35.77,6.77,0,13.41,1.93,19.29,5.6,11.51-15.95,28.38-25.05,46.56-25.05,23.93,0,45.31,15.86,55.03,40.61,5.13-2.3,10.53-3.46,16.09-3.46,6.9,0,13.72,1.85,19.83,5.37,5.77-6.9,13.76-10.82,22.17-10.82,6.43,0,12.72,2.32,17.91,6.58,8.85-10.55,21.13-16.56,33.98-16.56,16.27,0,31.48,9.71,40.02,25.44,1.63-.2,3.31-.3,5-.3,25.93,0,47.02,24.04,47.02,53.59s-21.09,53.59-47.02,53.59c-12.42,0-24.4-5.66-33.17-15.61-8.4,7.87-18.93,12.19-29.85,12.19-10.16,0-19.76-3.6-27.87-10.42-14.34,10.06-34.82,15.81-56.48,15.81Z"/>
        <path class="cls-3" d="M129.6,4.56c24.39,0,45.28,17.07,53.98,41.31,5.24-2.67,11.04-4.16,17.15-4.16,7.36,0,14.27,2.15,20.27,5.93,5.25-6.97,13.04-11.38,21.73-11.38,6.88,0,13.2,2.77,18.14,7.38,8.24-10.65,20.31-17.36,33.75-17.36,16.64,0,31.18,10.3,38.97,25.61,1.98-.31,3.99-.47,6.05-.47,24.86,0,45.02,22.97,45.02,51.31s-20.16,51.31-45.02,51.31c-13.06,0-24.82-6.34-33.04-16.46-7.96,8.11-18.46,13.04-29.98,13.04-10.48,0-20.12-4.08-27.76-10.92-13.53,9.97-33.86,16.3-56.59,16.3-19.69,0-37.58-4.76-50.8-12.51-5.34,3.03-11.35,4.72-17.72,4.72-10.43,0-19.92-4.56-27.03-12.03-3.95,7.23-10.99,12.03-19.01,12.03-9.72,0-17.99-7.06-21.1-16.92-5.14,3.34-11.08,5.25-17.42,5.25-19.43,0-35.19-17.96-35.19-40.1,0-16.94,9.22-31.42,22.25-37.29,3.44-20.03,18.93-35.14,37.5-35.14,7.24,0,14.01,2.29,19.78,6.28,10.66-15.65,27.33-25.72,46.07-25.72M129.6,0c-18.24,0-35.2,8.87-47.05,24.46-5.81-3.29-12.24-5.02-18.8-5.02-19.42,0-36.31,15.18-40.96,36.43C8.88,63.15,0,78.82,0,96.44c0,24.63,17.58,44.66,39.19,44.66,5.35,0,10.63-1.25,15.51-3.64,4.62,9.33,13.39,15.31,23,15.31,7.63,0,14.72-3.67,19.68-10.02,7.57,6.49,16.78,10.02,26.36,10.02,6.17,0,12.1-1.42,17.67-4.22,14.07,7.75,32.04,12,50.86,12,21.45,0,41.8-5.57,56.39-15.36,8.21,6.54,17.82,9.98,27.96,9.98,10.79,0,21.21-4.04,29.73-11.45,9.01,9.49,20.95,14.87,33.29,14.87,27.03,0,49.02-25.06,49.02-55.87s-21.99-55.87-49.02-55.87c-1.34,0-2.67.06-3.97.18-9.01-15.69-24.51-25.32-41.05-25.32-12.83,0-25.12,5.75-34.23,15.89-5.24-3.83-11.38-5.91-17.66-5.91-8.47,0-16.53,3.73-22.58,10.34-6.05-3.21-12.7-4.89-19.42-4.89-5.18,0-10.23.96-15.06,2.87C175.29,15.57,153.69,0,129.6,0h0Z"/>
      </g>
      <g>
        <path class="cls-1" d="M69.94,53.6h14v45.26c0,2.9,1,4.25,2.2,4.25s1.92-1.35,1.92-3.83v-45.67h14v48.67c0,3.94,0,7.97-2.27,13.05-2.56,5.8-6.75,9.01-11.52,9.01-4.34,0-9.1-3.73-11.45-9.73-2.63,6.52-6.54,9.73-11.66,9.73-6.9,0-13.29-8.6-13.29-18.95v-51.78h14v45.67c0,2.49.85,3.83,2.13,3.83,1.21,0,1.92-1.35,1.92-3.83v-45.67Z"/>
        <path class="cls-1" d="M138.61,117.81c-3.48,3.94-7.54,5.9-11.52,5.9-9.88,0-18.2-11.5-18.2-26.82,0-13.67,8.25-25.68,17.99-25.68s18.06,11.6,18.06,25.79c0,1.35,0,2.17-.07,3.52h-20.26c-.21-.93-.5-2.28-.5-3.73,0-2.49.36-4.04.64-5.18h7.18c-.5-3.73-2.35-5.59-4.55-5.59-3.13,0-5.69,4.14-5.69,10.67,0,7.25,2.99,11.19,5.54,11.19,1.64,0,2.84-1.45,3.91-3.11l7.46,13.05Z"/>
        <path class="cls-1" d="M164.84,53.6v69.08h-13.01V53.6h13.01Z"/>
        <path class="cls-1" d="M194.06,92.75c-1.14-2.28-2.56-3.62-4.41-3.62-2.7,0-5.12,3.11-5.12,7.56,0,3.83,2.42,7.35,5.05,7.35,2.49,0,4.05-1.86,5.05-5.59h12.94c-.78,14.71-8.25,25.27-18.34,25.27-8.96,0-17.7-10.87-17.7-26.72,0-13.88,8.03-25.79,17.7-25.79s16.56,10.05,17.99,20.92l-13.15.62Z"/>
        <path class="cls-1" d="M212.68,97.2c0-34.59,35.83-34.59,35.83.21s-35.83,35.11-35.83-.21ZM225.9,97.1c0,9.53,9.6,9.73,9.6.41s-9.6-9.32-9.6-.41Z"/>
        <path class="cls-1" d="M285.19,122.68h-12.8v-26.1c0-3.21-.43-5.38-2.35-5.38-1.49,0-2.13,2.07-2.13,5.38v26.1h-12.8v-31.69c0-10.87,6.11-19.88,13.29-19.88,4.69,0,7.39,2.59,10.52,7.25,2.99-4.35,6.04-7.25,10.02-7.25,7.32,0,13.72,7.66,13.72,22.68v28.89h-13.01v-26.1c0-3.21-.36-5.38-2.27-5.38-1.49,0-2.2,2.07-2.2,5.38v26.1Z"/>
        <path class="cls-1" d="M309.64,112.43c0-7.04,3.98-12.01,7.96-12.01,4.98,0,8.53,5.7,8.53,12.12s-3.63,11.91-8.32,11.91-8.18-5.9-8.18-12.01ZM324.56,53.6l-.28,43.6h-12.3l-.78-43.6h13.36Z"/>
      </g>
    </g>
  </g>
</svg>