<?xml version="1.0" encoding="UTF-8"?>
<svg id="Layer_1" data-name="Layer 1" xmlns="http://www.w3.org/2000/svg" viewBox="0 0 1470 663.66">
  <path d="M1420,663.66H50C22.39,663.66,0,641.27,0,613.66V50C0,22.39,22.39,0,50,0h1370c27.61,0,50,22.39,50,50v563.65c0,27.61-22.39,50-50,50Z" fill="#230e0d" stroke-width="0"/>
  <path d="M619.4,346.94c-9.92,5.54-19.08,10.42-30.17,12.96-12.15,2.78-24.61,3.95-36.84,6.34-1.95.38-3.96.79-5.61,1.9-2.17,1.47-3.4,3.96-5.2,5.87-5.64,6-15.15,5.12-23.22,6.73-9.41,1.87-17.59,7.55-26.65,10.69-14.73,5.11-29.94.8-44.47,4.58-14.8,3.85-28.12,12.08-43.14,15.15-11.43,2.34-23.24,1.42-34.87.49-16.73-1.33-31.03-6.26-45.8-14.13-9.82-5.24-20.74-7.55-31.23-10.96-10.68-3.48-20.87-9.03-32.28-9.65-10.26-.56-21.61-.79-29.49,5.8-5.01,4.2-7.76,10.54-12.45,15.1-12.19,11.85-31.51,8.82-45.59,17.77-7.76,4.92-14.84,10.92-22.99,15.14-12.56,6.51-26.13,4.93-39.64,6.85-18.48,2.61-33.48,11.59-48.86,21.51-8.52,5.5-17.13,11.06-24.09,18.44-7.03,7.45-12.13,16.5-18.74,24.33-5.07,6.01-10.43,12.26-18.07,17.65v-196.89h665.05c-15.66,6.94-30.69,15.98-45.65,24.33ZM1470,492.53v-169.92h-684.56c13.94,3.78,27.26,9.88,40.44,15.92,11.61,5.33,23.5,10.95,36.17,13.2,13.01,2.31,18.67,6.57,28.95,14.04,5.22,3.8,11.85,5.3,18.31,5.32,14.29.03,27.63-6.23,41.75-7.6,14.58-1.41,28.86,1.74,43.25,3.54,14.1,1.76,29.59,1.92,42.16-5.65,11.43-6.88,20.54-10.23,34.05-11.6,6.37-.64,12.83-1.29,19.16-.32,15.48,2.38,28.07,10.5,44.1,11.26,16.48.77,34,.52,49.74,6.08,32,11.31,53.09,46.94,86.78,51.12,12.84,1.6,25.6-1.63,38.3,1.6,11.51,2.93,22.18,9.04,34.25,9.54,18.59.77,34.97-12.45,53.86-10.06,11.86,1.5,23.17,8.17,31.88,16.36,8.71,8.2,15.42,18.24,22.06,28.19,5.91,8.86,11.82,17.73,17.73,26.59.53.79,1.07,1.59,1.62,2.39ZM1420,0H50C22.39,0,0,22.39,0,50v75.87c7.64,5.39,13,11.64,18.07,17.65,6.61,7.83,11.71,16.88,18.74,24.33,6.96,7.38,15.57,12.94,24.09,18.44,15.38,9.92,30.38,18.9,48.86,21.51,13.51,1.92,27.08.34,39.64,6.85,8.15,4.22,15.23,10.22,22.99,15.14,14.08,8.95,33.4,5.92,45.59,17.77,4.69,4.56,7.44,10.9,12.45,15.1,7.88,6.59,19.23,6.36,29.49,5.8,11.41-.62,21.6-6.17,32.28-9.65,10.49-3.41,21.41-5.72,31.23-10.96,14.77-7.87,29.07-12.8,45.8-14.13,11.63-.93,23.44-1.85,34.87.49,15.02,3.07,28.34,11.3,43.14,15.15,14.53,3.78,29.74-.53,44.47,4.58,9.06,3.14,17.24,8.82,26.65,10.69,8.07,1.61,17.58.73,23.22,6.73,1.8,1.91,3.03,4.4,5.2,5.87,1.65,1.11,3.66,1.52,5.61,1.9,12.23,2.39,24.69,3.56,36.84,6.34,11.09,2.54,20.25,7.42,30.17,12.96,14.96,8.35,29.99,17.39,45.65,24.33h120.39c13.94-3.78,27.26-9.88,40.44-15.92,11.61-5.33,23.5-10.95,36.17-13.2,13.01-2.31,18.67-6.57,28.95-14.04,5.22-3.8,11.85-5.3,18.31-5.32,14.29-.03,27.63,6.23,41.75,7.6,14.58,1.41,28.86-1.74,43.25-3.54,14.1-1.76,29.59-1.92,42.16,5.65,11.43,6.88,20.54,10.23,34.05,11.6,6.37.64,12.83,1.29,19.16.32,15.48-2.38,28.07-10.5,44.1-11.26,16.48-.77,34-.52,49.74-6.08,32-11.31,53.09-46.94,86.78-51.12,12.84-1.6,25.6,1.63,38.3-1.6,11.51-2.93,22.18-9.04,34.25-9.54,18.59-.77,34.97,12.45,53.86,10.06,11.86-1.5,23.17-8.17,31.88-16.36,8.71-8.2,15.42-18.24,22.06-28.19,5.91-8.86,11.82-17.73,17.73-26.59.53-.79,1.07-1.59,1.62-2.39V50c0-27.61-22.38-50-50-50Z" fill="#433230" stroke-width="0"/>
</svg>